<svg width="250px" height="250px" viewBox="0 0 1000 1500" fill="none"
  xmlns="http://www.w3.org/2000/svg">
  <path d="M749.478 465.408L588.198 189.626C580.803 176.951 562.58 166.58 547.701 166.58H447.013C423.61 166.58 414.013 150.289 425.69 130.377L480.905 36.2047C485.287 28.7299 485.278 19.5297 480.879 12.064C476.482 4.59832 468.365 0 459.58 0H319.117C304.239 0 285.975 10.3476 278.53 22.9934L5.58705 486.647C-1.85774 499.293 -1.86327 519.99 5.57598 532.639L75.8058 652.061C87.5074 671.959 106.698 671.983 118.449 652.114L173.326 559.336C185.078 539.467 204.268 539.491 215.97 559.388L265.721 643.985C273.158 656.636 291.42 666.984 306.297 666.984H630.877C645.755 666.984 664.016 656.636 671.455 643.985L749.397 511.455C756.836 498.805 756.871 478.085 749.478 465.408ZM531.671 452.135C543.299 472.075 533.665 488.387 510.261 488.387H257.794C234.391 488.387 224.816 472.107 236.518 452.21L362.852 237.394C374.551 217.496 393.7 217.496 405.399 237.396L531.671 452.135Z" fill="url(#gradient)"/>
  <defs>
    <style>
path {
  transform-origin: center;
  animation: pulse 2s infinite linear;
}
@keyframes pulse {
  0% { transform: scale(.4); }
  50% { transform: scale(1); }
  100% { transform: scale(.4); }
}
    </style>
    <linearGradient id="gradient">
      <stop stop-color="#fff4cc"/>
      <stop stop-color="#fff4cc"/>
      <stop offset="1" stop-color="#fff4cc"/>
    </linearGradient>
  </defs>
</svg>
